<svg width="306" height="306" xmlns="http://www.w3.org/2000/svg" xmlns:xlink="http://www.w3.org/1999/xlink" xml:space="preserve" overflow="hidden"><defs><clipPath id="clip0"><rect x="0" y="0" width="306" height="306"/></clipPath></defs><g clip-path="url(#clip0)"><path d="M98.8125 98.8125 63.75 98.8125 63.75 76.5 98.8125 76.5 98.8125 98.8125ZM146.625 76.5 146.625 98.8125 111.562 98.8125 111.562 76.5 146.625 76.5ZM194.438 76.5 194.438 98.8125 159.375 98.8125 159.375 76.5 194.438 76.5ZM242.25 76.5 242.25 98.8125 207.188 98.8125 207.188 76.5 242.25 76.5ZM242.25 133.875 207.188 133.875 207.188 111.562 242.25 111.562 242.25 133.875ZM242.25 160.969 207.188 164.156 207.188 146.625 242.25 146.625 242.25 160.969ZM98.8125 146.625 98.8125 173.719 63.75 176.906 63.75 146.625 98.8125 146.625ZM98.8125 133.875 63.75 133.875 63.75 111.562 98.8125 111.562 98.8125 133.875ZM146.625 133.875 111.562 133.875 111.562 111.562 146.625 111.562 146.625 133.875ZM159.375 133.875 159.375 111.562 194.438 111.562 194.438 133.875 159.375 133.875ZM146.625 169.575 111.562 172.762 111.562 146.625 146.625 146.625 146.625 169.575ZM159.375 146.625 194.438 146.625 194.438 165.113 159.375 168.3 159.375 146.625ZM261.375 178.5 261.375 57.375 63.75 57.375 63.75 54.1875C63.75 38.25 51 25.5 35.0625 25.5 29.6438 25.5 25.5 29.6438 25.5 35.0625 25.5 40.4813 29.6438 44.625 35.0625 44.625 40.4813 44.625 44.625 48.7687 44.625 54.1875L44.625 213.562C44.625 229.5 57.375 242.25 73.3125 242.25L82.875 242.25 223.125 242.25 251.812 242.25C257.231 242.25 261.375 238.106 261.375 232.688 261.375 227.269 257.231 223.125 251.812 223.125L73.3125 223.125C67.8937 223.125 63.75 218.981 63.75 213.562L63.75 196.031 261.375 178.5Z" fill="#FFFFFF"/><path d="M102 261.375C102 271.937 93.4374 280.5 82.875 280.5 72.3126 280.5 63.75 271.937 63.75 261.375 63.75 250.813 72.3126 242.25 82.875 242.25 93.4374 242.25 102 250.813 102 261.375Z" fill="#FFFFFF"/><path d="M242.25 261.375C242.25 271.937 233.687 280.5 223.125 280.5 212.563 280.5 204 271.937 204 261.375 204 250.813 212.563 242.25 223.125 242.25 233.687 242.25 242.25 250.813 242.25 261.375Z" fill="#FFFFFF"/></g></svg>